<svg xmlns="http://www.w3.org/2000/svg" width="25" height="22" viewBox="0 0 25 22">
    <g fill="#53555B" fill-rule="evenodd" opacity=".5">
        <path stroke="#53555B" d="M24 7h-1.353V3.25c0-.413-.303-.75-.676-.75H3.029c-.373 0-.676.337-.676.75V7H1V3.25C1 2.01 1.91 1 3.03 1h18.94C23.09 1 24 2.01 24 3.25V7M20.9 21H4.1C2.942 21 2 20.058 2 18.9V7h1.4v11.9a.7.7 0 0 0 .7.7h16.8a.7.7 0 0 0 .7-.7V7H23v11.9c0 1.158-.942 2.1-2.1 2.1"/>
        <path d="M15.3 11H9.7c-.387 0-.7-.224-.7-.5s.313-.5.7-.5h5.6c.387 0 .7.224.7.5s-.313.5-.7.5M1 6h23v1H1z"/>
    </g>
</svg>
