<svg height="20" viewBox="0 0 23 20" width="23" xmlns="http://www.w3.org/2000/svg"><path d="m10.379 3.849c.133.176.268.352.403.528l.187.244.092.12.119-.092c.198-.155.328-.353.453-.544.057-.087.11-.168.169-.245 1.135-1.487 2.484-2.19 4.129-2.149 1.236.03 2.45.606 3.33 1.58.888.98 1.344 2.257 1.25 3.505-.122 1.62-.75 3.14-1.978 4.782-1.052 1.407-2.65 3.207-6.534 5.897a3.9 3.9 0 0 0 -.282.223c-.21.177-.428.36-.622.345-.208-.017-.435-.198-.655-.373-.09-.071-.182-.145-.276-.21-1.895-1.308-4.315-3.115-6.218-5.5-1.148-1.44-1.856-2.853-2.166-4.32-.306-1.449.033-2.921.93-4.04.96-1.201 2.416-1.874 4.098-1.895 1.287.038 2.555.8 3.572 2.144zm11.807 1.785c-.034-.123-.067-.25-.099-.372-.07-.268-.142-.545-.232-.813-.72-2.14-2.43-3.726-4.575-4.242a6.343 6.343 0 0 0 -3.103.035 6.445 6.445 0 0 0 -2.874 1.65c-.191.188-.215.188-.415-.001-.932-.881-1.941-1.461-2.999-1.725-1.096-.273-2.253-.209-3.439.191-1.203.405-2.183 1.047-2.916 1.908-.723.851-1.212 1.925-1.452 3.191-.004.025-.02.057-.038.091a1.269 1.269 0 0 0 -.032.068l-.012.028v1.777l.016.032c.01.021.023.04.033.058.01.015.023.037.025.043.23 1.746.955 3.37 2.282 5.113 1.064 1.396 2.347 2.704 3.922 3.998 1.568 1.288 3.25 2.413 4.541 3.248a.49.49 0 0 0 .27.088c.12 0 .225-.052.317-.11 2.15-1.375 4.917-3.275 7.246-5.8 1.688-1.83 2.712-3.528 3.224-5.346.085-.301.153-.611.219-.91.03-.137.06-.278.093-.415l.004-.017v-1.748z" fill="#222" fill-rule="evenodd" opacity=".5"/></svg>