<svg height="18" viewBox="0 0 24 18" width="24" xmlns="http://www.w3.org/2000/svg"><g fill="#53555b" fill-rule="evenodd" opacity=".5"><path d="m21.882 18h-19.764c-1.168 0-2.118-.932-2.118-2.077v-13.846c0-1.145.95-2.077 2.118-2.077h19.764c1.168 0 2.118.932 2.118 2.077v13.846c0 1.145-.95 2.077-2.118 2.077zm-19.764-16.615a.7.7 0 0 0 -.706.692v13.846a.7.7 0 0 0 .706.692h19.764a.7.7 0 0 0 .706-.692v-13.846a.7.7 0 0 0 -.706-.692z"/><path d="m1 3h22v4h-22zm1 7h1v1h-1zm2 0h1v1h-1zm1 0h1v1h-1zm2 0h1v1h-1zm2 0h1v1h-1zm1 0h1v1h-1zm2 0h1v1h-1zm1 0h1v1h-1zm2 0h1v1h-1zm2 0h1v1h-1zm1 0h1v1h-1zm2 0h1v1h-1z"/></g></svg>