<svg height="134" viewBox="0 0 134 134" width="134" xmlns="http://www.w3.org/2000/svg" xmlns:xlink="http://www.w3.org/1999/xlink"><linearGradient id="a" x1="50%" x2="50%" y1="0%" y2="100%"><stop offset="0" stop-color="#fff" stop-opacity=".5"/><stop offset="1" stop-color="#fff" stop-opacity=".5"/></linearGradient><g fill="none" fill-rule="evenodd" transform="translate(4 4)"><circle cx="63" cy="63" fill="url(#a)" opacity=".5" r="65" stroke="#fff" stroke-width="4"/><g fill="#fff"><path d="m75.353 75.333h-24.706c-1.46 0-2.647-1.217-2.647-2.714v-16.286c0-1.496 1.188-2.714 2.647-2.714h5.294c.151 0 .42-.171.488-.31l.975-2c.364-.746 1.252-1.309 2.066-1.309h7.06c.814 0 1.702.563 2.066 1.31l.975 2c.068.138.337.309.488.309h5.294c1.46 0 2.647 1.218 2.647 2.714v16.287c0 1.497-1.188 2.714-2.647 2.714zm-24.706-19.903a.895.895 0 0 0 -.882.904v16.286c0 .5.396.905.882.905h24.706a.895.895 0 0 0 .882-.905v-16.287c0-.5-.396-.904-.882-.904h-5.294c-.814 0-1.702-.563-2.067-1.31l-.975-2c-.067-.138-.336-.31-.488-.31h-7.06c-.15 0-.418.172-.485.309l-.976 2.001c-.365.747-1.253 1.31-2.067 1.31h-5.294z"/><path d="m63 71.714c-4.378 0-7.941-3.652-7.941-8.143 0-4.49 3.563-8.142 7.941-8.142s7.941 3.652 7.941 8.142-3.563 8.143-7.941 8.143zm0-14.476c-3.406 0-6.176 2.842-6.176 6.333 0 3.492 2.77 6.334 6.176 6.334s6.176-2.842 6.176-6.334c0-3.491-2.77-6.333-6.176-6.333zm9.706 0c0 .5-.395.905-.882.905a.894.894 0 0 1 -.883-.905c0-.5.395-.905.883-.905.487 0 .882.406.882.905m-21.176-5.428h3.529v.904h-3.53z"/><path d="m63 59.952v-.904c-2.436 0-4.412 2.025-4.412 4.523h.883c0-1.995 1.583-3.619 3.529-3.619"/></g></g></svg>