<svg height="19" viewBox="0 0 19 19" width="19" xmlns="http://www.w3.org/2000/svg"><path d="m8.034 0a.73.73 0 0 1 .73.73v7.304a.73.73 0 0 1 -.73.73h-7.304a.73.73 0 0 1 -.73-.73v-7.304a.73.73 0 0 1 .73-.73zm-.73 7.303v-5.842h-5.844v5.842h5.842zm10.953-7.303a.73.73 0 0 1 .73.73v7.304a.73.73 0 0 1 -.73.73h-7.303a.73.73 0 0 1 -.73-.73v-7.304a.73.73 0 0 1 .73-.73zm-.73 7.303v-5.842h-5.843v5.842zm-9.494 2.922a.73.73 0 0 1 .73.73v7.303a.73.73 0 0 1 -.73.73h-7.303a.73.73 0 0 1 -.73-.73v-7.303a.73.73 0 0 1 .73-.73h7.304zm-.73 7.303v-5.843h-5.843v5.843h5.842zm10.954-7.303a.73.73 0 0 1 .73.73v7.303a.73.73 0 0 1 -.73.73h-7.303a.73.73 0 0 1 -.73-.73v-7.303a.73.73 0 0 1 .73-.73zm-.73 7.303v-5.843h-5.843v5.843z" fill="#6a8e33"/></svg>