<svg xmlns="http://www.w3.org/2000/svg" width="21" height="19" viewBox="0 0 21 19">
    <g fill="#6A8E33" fill-rule="evenodd">
        <path d="M13.68 14.82v1.52H.38a.38.38 0 1 0 0 .76h13.3v1.52c0 .21.17.38.38.38h4.56c.21 0 .38-.17.38-.38V17.1h1.14a.38.38 0 1 0 0-.76H19v-1.52a.38.38 0 0 0-.38-.38h-4.56a.38.38 0 0 0-.38.38zM7.6 7.6v1.52H.38a.38.38 0 1 0 0 .76H7.6v1.52c0 .21.17.38.38.38h4.56c.21 0 .38-.17.38-.38V9.88h7.22a.38.38 0 1 0 0-.76h-7.22V7.6a.38.38 0 0 0-.38-.38H7.98a.38.38 0 0 0-.38.38zM1.52.38V1.9H.38a.38.38 0 1 0 0 .76h1.14v1.52c0 .21.17.38.38.38h4.56c.21 0 .38-.17.38-.38V2.66h13.3a.38.38 0 1 0 0-.76H6.84V.38A.38.38 0 0 0 6.46 0H1.9a.38.38 0 0 0-.38.38z"/>
    </g>
</svg>
