<svg xmlns="http://www.w3.org/2000/svg" width="10" height="13" viewBox="0 0 10 13">
    <path fill="#FFF" fill-rule="nonzero" stroke="#FFF" stroke-width=".2" d="M8.488 3.683V2.497a1.05 1.05 0 0 0-1.049-1.05h-.032c-.292 0-.556.12-.746.313A1.05 1.05 0 0 0 5.653 1h-.032c-.367 0-.69.189-.877.474A1.048 1.048 0 0 0 3.867 1h-.032a1.05 1.05 0 0 0-1.008.76 1.046 1.046 0 0 0-.746-.312H2.05A1.05 1.05 0 0 0 1 2.497v1.82c0 .327.149.62.382.816v.114c0 1.056.442 1.81.813 2.258.286.345.571.563.718.663l-.63 4.106a.4.4 0 0 0 .397.462h3.045a.172.172 0 1 0 0-.343H2.68a.056.056 0 0 1-.044-.02.056.056 0 0 1-.013-.046l.438-2.857a2.2 2.2 0 0 1 .087.206.31.31 0 0 0 .296.209.31.31 0 0 0 .27-.156c.561-.96 1.111-1.532 1.47-1.532.36 0 .91.573 1.472 1.532a.311.311 0 0 0 .3.154.311.311 0 0 0 .266-.207c.032-.09.071-.18.116-.266l.417 2.917a.056.056 0 0 1-.013.046.057.057 0 0 1-.043.02H6.367a.172.172 0 1 0 0 .343H7.7a.4.4 0 0 0 .397-.458l-.463-3.233v-.001L7.447 7.75a.977.977 0 0 1 .655-.91c.53-.184.885-.685.885-1.246V4.317a.653.653 0 0 0-.5-.634zM7.407 1.792h.032c.389 0 .705.316.705.705v1.168H6.702V2.497c0-.389.316-.705.705-.705zm-4.277.257c0-.389.316-.705.705-.705h.032c.389 0 .705.316.705.705v.486a.172.172 0 1 0 .344 0v-.486c0-.389.316-.705.705-.705h.032c.389 0 .705.316.705.705v1.616h-.453a.643.643 0 0 0-.559.32.642.642 0 0 0-.064.511.721.721 0 0 1-.366-.627v-.693a.172.172 0 1 0-.344 0v.693a.722.722 0 0 1-1.442 0v-1.82zm-1.786.448c0-.389.316-.705.705-.705h.032c.389 0 .705.316.705.705v1.82a.722.722 0 0 1-1.442 0v-1.82zm7.3 3.097a.977.977 0 0 1-.655.922 1.321 1.321 0 0 0-.884 1.27L7.27 8.93a.314.314 0 0 0-.109.102 2.547 2.547 0 0 0-.24.47c-.454-.765-1.112-1.648-1.735-1.648s-1.282.883-1.736 1.648a2.548 2.548 0 0 0-.24-.47.312.312 0 0 0-.069-.075l.13-.846a.172.172 0 0 0-.084-.175c-.014-.008-1.418-.838-1.46-2.609a1.066 1.066 0 0 0 1.361-.715 1.062 1.062 0 0 0 1.657-.163c.175.269.467.454.804.482.098.113.208.213.33.297a1.186 1.186 0 0 0-.954 1.162.172.172 0 1 0 .344 0c0-.463.377-.84.84-.84H7.42a.172.172 0 1 0 0-.344h-.522a1.44 1.44 0 0 1-1.108-.521.172.172 0 0 0-.042-.053 1.422 1.422 0 0 1-.11-.17.302.302 0 0 1 .004-.302.302.302 0 0 1 .263-.15h2.43c.17 0 .308.138.308.308v1.277z"/>
</svg>
