<svg xmlns="http://www.w3.org/2000/svg" width="22" height="22" viewBox="0 0 22 22">
    <g fill="none" fill-rule="evenodd" stroke="#FFF">
        <g transform="translate(1 1)">
            <circle cx="10" cy="10" r="10" opacity=".3"/>
            <g stroke-linecap="square">
                <path d="M10.368 3.373c3.294 1.713 4.568 2.805 3.824 3.275-1.17.74-7.691.573-8.501-.09-.514-.42.727-1.476 3.724-3.168a1 1 0 0 1 .953-.017zM10.368 7.464c3.294 1.713 4.568 2.804 3.824 3.275-1.17.74-7.691.573-8.501-.09-.514-.42.727-1.476 3.724-3.168a1 1 0 0 1 .953-.017zM10.368 11.555c3.294 1.713 4.568 2.804 3.824 3.275-1.17.74-7.691.573-8.501-.09-.514-.42.727-1.476 3.724-3.169a1 1 0 0 1 .953-.016z"/>
            </g>
        </g>
        <path stroke-linecap="square" d="M11 16.5v1.53"/>
    </g>
</svg>
