<svg xmlns="http://www.w3.org/2000/svg" width="22" height="22" viewBox="0 0 22 22">
    <g fill="none" fill-rule="evenodd" stroke="#FFF" transform="translate(1 1)">
        <circle cx="10" cy="10" r="10" opacity=".3"/>
        <g transform="translate(3 1)">
            <path d="M10.9 10.828c1.562-1.562 2.033-3.919 1.414-7.07-3.152-.62-5.51-.149-7.071 1.414-1.562 1.562-2.034 3.919-1.415 7.07 3.152.62 5.51.149 7.071-1.414z"/>
            <path stroke-linecap="square" d="M3.707 13.002c.435 2.065.386 3.063-.147 2.995C2.68 15.884 0 13.03 0 12.344c0-.414.966-.454 2.898-.122a1 1 0 0 1 .809.78z"/>
            <circle cx="9" cy="6.929" r="1"/>
            <path stroke-linecap="round" d="M10 10.429v3M2.5 6h3"/>
        </g>
    </g>
</svg>
