<svg enable-background="new 0 0 16 16" viewBox="0 0 16 16" xmlns="http://www.w3.org/2000/svg"><path d="m14.2 6.8h-1.4c.1.4.2.8.2 1.2 0 2.7-2.2 4.9-4.9 4.9s-5-2.2-5-4.9c0-.4.1-.8.2-1.2h-1.5v6.8c0 .3.3.6.6.6h11.1c.3 0 .6-.3.6-.6v-6.8zm.1-4.3c0-.4-.3-.6-.6-.6h-1.9c-.4 0-.6.3-.6.6v1.9c0 .4.3.6.6.6h1.9c.4 0 .6-.3.6-.6zm-6.3 2.4c-1.7 0-3.1 1.3-3.1 3s1.3 3.1 3 3.1h.1c1.7 0 3.1-1.4 3-3.1 0-1.6-1.3-2.9-3-3zm6.2 11.1h-12.4c-1 0-1.8-.8-1.8-1.8v-12.4c0-1 .8-1.8 1.8-1.8h12.3c1 0 1.8.8 1.8 1.8v12.3c.1 1.1-.7 1.9-1.7 1.9z" fill="#74786c" fill-opacity=".3"/></svg>