<svg enable-background="new 0 0 13 16" viewBox="0 0 13 16" xmlns="http://www.w3.org/2000/svg"><path d="m6.6 0c-4.4 0-6.6 3.1-6.6 5.7 0 1.6.6 3 1.9 3.5.2.1.4 0 .5-.2 0-.2.1-.6.2-.7.1-.2 0-.3-.1-.5-.5-.5-.7-1-.7-1.8 0-2.3 1.7-4.4 4.5-4.4 2.5 0 3.8 1.5 3.8 3.5 0 2.6-1.1 4.9-2.9 4.9-1 0-1.7-.8-1.5-1.8.4-1.2.9-2.4.9-3.3 0-.8-.4-1.4-1.2-1.4-1 0-1.8 1-1.8 2.4 0 .9.3 1.5.3 1.5l-1.2 5c-.4 1.5-.1 3.3 0 3.5 0 .1.1.1.2.1.1-.1 1.3-1.6 1.7-3 .1-.4.6-2.5.6-2.5.3.6 1.3 1.1 2.2 1.1 3 0 5-2.7 5-6.3 0-2.8-2.3-5.3-5.8-5.3z" fill="#74786c" fill-opacity=".3"/></svg>