<?xml version="1.0" encoding="utf-8"?>
<!-- Generator: Adobe Illustrator 21.0.2, SVG Export Plug-In . SVG Version: 6.00 Build 0)  -->
<svg version="1.1" id="Слой_1" xmlns="http://www.w3.org/2000/svg" xmlns:xlink="http://www.w3.org/1999/xlink" x="0px" y="0px"
	 viewBox="0 0 28.5 27.2" style="enable-background:new 0 0 28.5 27.2;" xml:space="preserve">
<style type="text/css">
	.st0{fill:#FFFFFF;stroke:#383F2D;stroke-opacity:0.5;}
</style>
<path class="st0" d="M14.2,22.5l-7.9,4.2c-0.2,0.1-0.5,0-0.7-0.2c-0.1-0.1-0.1-0.2-0.1-0.3L7,17.3l-6.4-6.2c-0.2-0.2-0.2-0.5,0-0.7
	c0.1-0.1,0.2-0.1,0.3-0.1l8.9-1.3l4-8c0.1-0.2,0.4-0.3,0.7-0.2c0.1,0,0.2,0.1,0.2,0.2l4,8l8.9,1.3c0.3,0,0.5,0.3,0.4,0.6
	c0,0.1-0.1,0.2-0.1,0.3l-6.4,6.2l1.5,8.8c0,0.3-0.1,0.5-0.4,0.6c-0.1,0-0.2,0-0.3-0.1L14.2,22.5z"/>
</svg>
