<?xml version="1.0" encoding="utf-8"?>
<!-- Generator: Adobe Illustrator 21.0.2, SVG Export Plug-In . SVG Version: 6.00 Build 0)  -->
<svg version="1.1" id="Слой_1" xmlns="http://www.w3.org/2000/svg" xmlns:xlink="http://www.w3.org/1999/xlink" x="0px" y="0px"
	 viewBox="0 0 27.4 26.1" style="enable-background:new 0 0 27.4 26.1;" xml:space="preserve">
<style type="text/css">
	.st0{fill:#E58801;}
</style>
<path class="st0" d="M13.7,21.9L5.8,26c-0.2,0.1-0.5,0-0.7-0.2C5,25.7,5,25.6,5,25.5l1.5-8.8l-6.4-6.2c-0.2-0.2-0.2-0.5,0-0.7
	c0.1-0.1,0.2-0.1,0.3-0.1l8.9-1.3l4-8c0.1-0.2,0.4-0.3,0.7-0.2c0.1,0,0.2,0.1,0.2,0.2l4,8L27,9.6c0.3,0,0.5,0.3,0.4,0.6
	c0,0.1-0.1,0.2-0.1,0.3l-6.4,6.2l1.5,8.8c0,0.3-0.1,0.5-0.4,0.6c-0.1,0-0.2,0-0.3-0.1L13.7,21.9z"/>
</svg>
