<svg enable-background="new 0 0 626.5 626.5" viewBox="0 0 626.5 626.5" xmlns="http://www.w3.org/2000/svg"><path d="m611.5 581.5-140.5-140.6c41.6-46.9 67.6-107.9 67.6-175.3 0-146.4-119.2-265.6-265.7-265.6s-265.6 119.2-265.6 265.6 119.2 265.6 265.6 265.6c60 0 114.8-20.8 159.4-54.4l141.9 142c5.2 5.2 11.9 7.7 18.7 7.7s13.5-2.6 18.7-7.7c10.2-10.3 10.2-27-.1-37.3zm-551.5-315.9c0-117.4 95.5-212.9 212.9-212.9s212.9 95.5 212.9 212.9-95.5 212.8-212.9 212.8c-117.4.1-212.9-95.4-212.9-212.8z" fill="#6a8e33"/></svg>