<svg height="19" viewBox="0 0 20 19" width="20" xmlns="http://www.w3.org/2000/svg"><path d="m18.966 16.288h-8.126a.677.677 0 0 0 0 1.355l8.125-.02a.66.66 0 0 0 .677-.658.677.677 0 0 0 -.677-.677zm-9.479-14.912 9.479-.001a.676.676 0 1 0 0-1.354h-9.479a.677.677 0 0 0 0 1.355zm1.142 11.036a.677.677 0 0 0 -.961 0l-3.566 4.104v-16.496h-1.354v16.52l-3.588-4.129a.677.677 0 0 0 -.96 0 .684.684 0 0 0 0 .965l4.699 5.409a.67.67 0 0 0 .514.193c.186.01.374-.05.515-.193l4.7-5.409a.683.683 0 0 0 .001-.965zm8.337-8.324h-9.479a.677.677 0 0 0 -.677.677c0 .375.303.672.677.672h9.479a.672.672 0 0 0 .677-.672.677.677 0 0 0 -.677-.677zm0 4.066h-9.479a.677.677 0 0 0 -.677.678c0 .374.303.666.677.666l9.479.011a.677.677 0 0 0 0-1.355zm0 4.067h-5.417a.677.677 0 0 0 -.677.677c0 .375.304.663.677.663h5.417a.665.665 0 0 0 .677-.663.677.677 0 0 0 -.677-.677z" fill="#6a8e33"/></svg>