<svg xmlns="http://www.w3.org/2000/svg" width="22" height="22" viewBox="0 0 22 22">
    <path fill="#DF5D00" fill-rule="evenodd" stroke="#E58801" d="M20.375 13.5h-6.25a.626.626 0 0 0 0 1.25h4.772c-1.406 2.956-4.408 5-7.897 5-4.407 0-8.042-3.262-8.65-7.5H1.085C1.703 17.181 5.901 21 11 21a9.999 9.999 0 0 0 8.75-5.162v4.537a.626.626 0 0 0 1.25 0v-6.25c0-.662-.625-.625-.625-.625zm-18.75-5h6.25a.626.626 0 0 0 0-1.25H3.099a8.741 8.741 0 0 1 7.901-5c4.407 0 8.043 3.262 8.65 7.5h1.264C20.297 4.819 16.099 1 11 1a9.999 9.999 0 0 0-8.75 5.162V1.625a.626.626 0 0 0-1.25 0v6.25c0 .606.625.625.625.625z"/>
</svg>
