<svg enable-background="new 0 0 459.5 417.1" viewBox="0 0 459.5 417.1" xmlns="http://www.w3.org/2000/svg"><g fill="#fff"><path d="m17 34h48.7l69.4 251c2 7.4 8.8 12.5 16.4 12.5h213.3c6.8 0 12.8-4 15.6-10.2l77.6-178.5c2.3-5.4 1.7-11.3-1.4-16.1s-8.5-7.7-14.2-7.7h-235.6c-9.4 0-17 7.7-17 17s7.6 17 17 17h209.7l-62.9 144.5h-189.3l-69.4-251c-2-7.4-8.8-12.5-16.4-12.5h-61.5c-9.3 0-17 7.6-17 17s7.7 17 17 17z"/><path d="m135.4 417.1c21.2 0 38.5-17.3 38.5-38.5s-17.2-38.6-38.5-38.6-38.5 17.3-38.5 38.5 17.3 38.6 38.5 38.6z"/><path d="m376.3 417.1h2.8c10.2-.9 19.5-5.4 26.4-13.3 6.8-7.6 9.9-17.6 9.4-28-1.4-21-19.8-37.1-41.1-35.7s-37.1 20.1-35.7 41.1c1.3 20 18 35.9 38.2 35.9z"/></g></svg>