<svg xmlns="http://www.w3.org/2000/svg" width="23" height="20" viewBox="0 0 23 20">
    <path fill="#383F2D" fill-rule="evenodd" d="M22.186 5.634l.006.02v1.748l-.004.017c-.032.137-.063.278-.093.414-.066.3-.134.61-.22.911-.511 1.818-1.535 3.517-3.223 5.346-2.33 2.525-5.096 4.425-7.246 5.8a.591.591 0 0 1-.317.11.49.49 0 0 1-.27-.088c-1.29-.835-2.973-1.96-4.541-3.248-1.575-1.294-2.858-2.602-3.922-3.998C1.03 10.923.303 9.299.074 7.553A.427.427 0 0 0 .05 7.51l-.033-.058L0 7.42V5.643l.012-.028a1.27 1.27 0 0 1 .032-.068c.018-.034.034-.066.038-.09.24-1.267.729-2.34 1.452-3.192C2.267 1.404 3.247.762 4.45.357c1.187-.4 2.344-.464 3.44-.19 1.058.263 2.067.843 2.999 1.724.2.189.224.189.415.002A6.445 6.445 0 0 1 14.177.242 6.343 6.343 0 0 1 17.28.207c2.144.516 3.854 2.102 4.575 4.242.09.268.162.545.232.813.032.122.065.249.1.372z"/>
</svg>
