<svg enable-background="new 0 0 979.5 979.5" viewBox="0 0 979.5 979.5" xmlns="http://www.w3.org/2000/svg"><path d="m964.6 227.5c-15.6-44.6-43.1-84.8-79.4-116.3s-80.1-53-126.4-62.2c-17.5-3.4-35.4-5.2-53.4-5.2-52.4 0-103.3 14.8-147.3 42.8-26.5 16.9-49.7 38-68.9 62.5-19.2-24.4-42.4-45.5-68.9-62.4-44-28-94.9-42.8-147.2-42.8-43.6 0-87.4 10.8-126.5 31.1-39.2 20.4-73.1 50-98.2 85.7-25.6 36.6-41.3 77.6-46.5 121.8-4.5 38.7-1 80.2 10.4 123.4 22.7 85.6 72.8 163.7 110.9 214.1 82.8 109.7 196.6 209.2 348 304.3l18.1 11.4 18.1-11.4c186.2-117 316.2-240.5 397.4-377.6 46.7-78.8 71-149.1 74.3-214.7 1.9-36.6-3-71.7-14.5-104.5zm-475.3 627.7c-135.3-87.1-237.4-177.6-311.8-276.2-34.4-45.6-79.6-115.6-99.4-190.6-9.2-34.9-12.1-68-8.6-98.1 3.8-32.8 15.5-63.3 34.6-90.5 18.8-26.8 44.4-49.1 73.9-64.4 29.5-15.4 62.4-23.5 95.2-23.5 39.4 0 77.7 11.1 110.7 32.1 32.2 20.5 58.1 49.4 74.9 83.6l30.6 62.3 30.5-62.3c16.8-34.2 42.6-63.2 74.9-83.7 33.1-21.1 71.4-32.2 110.8-32.2 13.5 0 27.1 1.3 40.2 3.9 34.7 6.8 67.6 23 95 46.8s48.1 54 59.8 87.5c8.5 24.4 12.2 50.8 10.8 78.5-2.8 54.4-24 114.4-64.9 183.6-73.2 123.3-190 235.7-357.2 343.2z" fill="#fff"/></svg>